<mxfile host="app.diagrams.net" modified="2022-02-24T07:20:18.441Z" agent="5.0 (Windows NT 10.0; Win64; x64) AppleWebKit/537.36 (KHTML, like Gecko) Chrome/97.0.4692.99 Safari/537.36" etag="XBOTDBS4ZKnEfl7ZtjFe" version="16.6.1" type="github">
  <diagram id="X77dKztJRfCibkYVblq0" name="Page-1">
    <mxGraphModel dx="3076" dy="762" grid="1" gridSize="10" guides="1" tooltips="1" connect="1" arrows="1" fold="1" page="1" pageScale="1" pageWidth="827" pageHeight="1169" math="0" shadow="0">
      <root>
        <mxCell id="0" />
        <mxCell id="1" parent="0" />
        <mxCell id="SrPzOORxQsSpC2F4RSff-1" value="" style="endArrow=none;html=1;rounded=0;" edge="1" parent="1">
          <mxGeometry width="50" height="50" relative="1" as="geometry">
            <mxPoint x="-960" y="120" as="sourcePoint" />
            <mxPoint x="800" y="120" as="targetPoint" />
          </mxGeometry>
        </mxCell>
        <mxCell id="SrPzOORxQsSpC2F4RSff-2" value="" style="endArrow=none;html=1;rounded=0;" edge="1" parent="1">
          <mxGeometry width="50" height="50" relative="1" as="geometry">
            <mxPoint x="360" y="530" as="sourcePoint" />
            <mxPoint x="360" y="80" as="targetPoint" />
          </mxGeometry>
        </mxCell>
        <mxCell id="SrPzOORxQsSpC2F4RSff-5" style="edgeStyle=orthogonalEdgeStyle;rounded=0;orthogonalLoop=1;jettySize=auto;html=1;exitX=0.5;exitY=1;exitDx=0;exitDy=0;" edge="1" parent="1" source="SrPzOORxQsSpC2F4RSff-3" target="SrPzOORxQsSpC2F4RSff-4">
          <mxGeometry relative="1" as="geometry" />
        </mxCell>
        <mxCell id="SrPzOORxQsSpC2F4RSff-3" value="后台" style="rounded=0;whiteSpace=wrap;html=1;" vertex="1" parent="1">
          <mxGeometry x="70" y="40" width="120" height="60" as="geometry" />
        </mxCell>
        <mxCell id="SrPzOORxQsSpC2F4RSff-7" style="edgeStyle=orthogonalEdgeStyle;rounded=0;orthogonalLoop=1;jettySize=auto;html=1;exitX=0.5;exitY=1;exitDx=0;exitDy=0;" edge="1" parent="1" source="SrPzOORxQsSpC2F4RSff-4" target="SrPzOORxQsSpC2F4RSff-6">
          <mxGeometry relative="1" as="geometry" />
        </mxCell>
        <mxCell id="SrPzOORxQsSpC2F4RSff-4" value="能力管理" style="rounded=0;whiteSpace=wrap;html=1;" vertex="1" parent="1">
          <mxGeometry x="70" y="180" width="120" height="60" as="geometry" />
        </mxCell>
        <mxCell id="SrPzOORxQsSpC2F4RSff-9" style="edgeStyle=orthogonalEdgeStyle;rounded=0;orthogonalLoop=1;jettySize=auto;html=1;exitX=0.5;exitY=1;exitDx=0;exitDy=0;" edge="1" parent="1" source="SrPzOORxQsSpC2F4RSff-6" target="SrPzOORxQsSpC2F4RSff-8">
          <mxGeometry relative="1" as="geometry" />
        </mxCell>
        <mxCell id="SrPzOORxQsSpC2F4RSff-6" value="能力模型" style="rounded=0;whiteSpace=wrap;html=1;" vertex="1" parent="1">
          <mxGeometry x="70" y="300" width="120" height="60" as="geometry" />
        </mxCell>
        <mxCell id="SrPzOORxQsSpC2F4RSff-8" value="能力考核方案" style="rounded=0;whiteSpace=wrap;html=1;" vertex="1" parent="1">
          <mxGeometry x="70" y="410" width="120" height="60" as="geometry" />
        </mxCell>
        <mxCell id="SrPzOORxQsSpC2F4RSff-14" style="edgeStyle=orthogonalEdgeStyle;rounded=0;orthogonalLoop=1;jettySize=auto;html=1;exitX=0.5;exitY=1;exitDx=0;exitDy=0;entryX=0.411;entryY=0.083;entryDx=0;entryDy=0;entryPerimeter=0;" edge="1" parent="1" target="SrPzOORxQsSpC2F4RSff-13">
          <mxGeometry relative="1" as="geometry">
            <mxPoint x="360" y="470" as="sourcePoint" />
            <mxPoint x="360" y="540" as="targetPoint" />
            <Array as="points">
              <mxPoint x="360" y="560" />
            </Array>
          </mxGeometry>
        </mxCell>
        <mxCell id="SrPzOORxQsSpC2F4RSff-19" style="edgeStyle=orthogonalEdgeStyle;rounded=0;orthogonalLoop=1;jettySize=auto;html=1;exitX=0.75;exitY=0;exitDx=0;exitDy=0;" edge="1" parent="1" source="SrPzOORxQsSpC2F4RSff-13" target="SrPzOORxQsSpC2F4RSff-16">
          <mxGeometry relative="1" as="geometry">
            <Array as="points">
              <mxPoint x="530" y="555" />
            </Array>
          </mxGeometry>
        </mxCell>
        <mxCell id="SrPzOORxQsSpC2F4RSff-30" style="edgeStyle=orthogonalEdgeStyle;rounded=0;orthogonalLoop=1;jettySize=auto;html=1;" edge="1" parent="1" source="SrPzOORxQsSpC2F4RSff-13" target="SrPzOORxQsSpC2F4RSff-29">
          <mxGeometry relative="1" as="geometry">
            <Array as="points">
              <mxPoint x="-120" y="520" />
              <mxPoint x="-120" y="520" />
            </Array>
          </mxGeometry>
        </mxCell>
        <mxCell id="SrPzOORxQsSpC2F4RSff-13" value="学员能力考核情况表" style="rounded=0;whiteSpace=wrap;html=1;" vertex="1" parent="1">
          <mxGeometry x="-960" y="555" width="1700" height="65" as="geometry" />
        </mxCell>
        <mxCell id="SrPzOORxQsSpC2F4RSff-67" style="edgeStyle=orthogonalEdgeStyle;rounded=0;orthogonalLoop=1;jettySize=auto;html=1;exitX=0.75;exitY=1;exitDx=0;exitDy=0;" edge="1" parent="1" source="SrPzOORxQsSpC2F4RSff-15" target="SrPzOORxQsSpC2F4RSff-33">
          <mxGeometry relative="1" as="geometry" />
        </mxCell>
        <mxCell id="SrPzOORxQsSpC2F4RSff-15" value="qpp" style="rounded=0;whiteSpace=wrap;html=1;" vertex="1" parent="1">
          <mxGeometry x="470" y="40" width="120" height="60" as="geometry" />
        </mxCell>
        <mxCell id="SrPzOORxQsSpC2F4RSff-20" style="edgeStyle=orthogonalEdgeStyle;rounded=0;orthogonalLoop=1;jettySize=auto;html=1;" edge="1" parent="1" source="SrPzOORxQsSpC2F4RSff-16" target="SrPzOORxQsSpC2F4RSff-15">
          <mxGeometry relative="1" as="geometry" />
        </mxCell>
        <mxCell id="SrPzOORxQsSpC2F4RSff-34" style="edgeStyle=orthogonalEdgeStyle;rounded=0;orthogonalLoop=1;jettySize=auto;html=1;exitX=1;exitY=0.25;exitDx=0;exitDy=0;entryX=0;entryY=0.25;entryDx=0;entryDy=0;" edge="1" parent="1" source="SrPzOORxQsSpC2F4RSff-16" target="SrPzOORxQsSpC2F4RSff-33">
          <mxGeometry relative="1" as="geometry" />
        </mxCell>
        <mxCell id="SrPzOORxQsSpC2F4RSff-16" value="能力模型" style="rounded=0;whiteSpace=wrap;html=1;" vertex="1" parent="1">
          <mxGeometry x="470" y="220" width="120" height="60" as="geometry" />
        </mxCell>
        <mxCell id="SrPzOORxQsSpC2F4RSff-69" style="edgeStyle=orthogonalEdgeStyle;rounded=0;orthogonalLoop=1;jettySize=auto;html=1;" edge="1" parent="1" source="SrPzOORxQsSpC2F4RSff-21">
          <mxGeometry relative="1" as="geometry">
            <mxPoint x="-400" y="300" as="targetPoint" />
          </mxGeometry>
        </mxCell>
        <mxCell id="SrPzOORxQsSpC2F4RSff-21" value="定时任务" style="rounded=0;whiteSpace=wrap;html=1;" vertex="1" parent="1">
          <mxGeometry x="-460" y="40" width="120" height="60" as="geometry" />
        </mxCell>
        <mxCell id="SrPzOORxQsSpC2F4RSff-56" style="edgeStyle=orthogonalEdgeStyle;rounded=0;orthogonalLoop=1;jettySize=auto;html=1;exitX=0.5;exitY=1;exitDx=0;exitDy=0;" edge="1" parent="1" target="SrPzOORxQsSpC2F4RSff-55">
          <mxGeometry relative="1" as="geometry">
            <mxPoint x="-400" y="360" as="sourcePoint" />
          </mxGeometry>
        </mxCell>
        <mxCell id="SrPzOORxQsSpC2F4RSff-31" style="edgeStyle=orthogonalEdgeStyle;rounded=0;orthogonalLoop=1;jettySize=auto;html=1;entryX=0;entryY=0.5;entryDx=0;entryDy=0;" edge="1" parent="1" source="SrPzOORxQsSpC2F4RSff-29" target="SrPzOORxQsSpC2F4RSff-3">
          <mxGeometry relative="1" as="geometry">
            <Array as="points">
              <mxPoint x="-120" y="70" />
            </Array>
          </mxGeometry>
        </mxCell>
        <mxCell id="SrPzOORxQsSpC2F4RSff-29" value="报表中心" style="rounded=1;whiteSpace=wrap;html=1;" vertex="1" parent="1">
          <mxGeometry x="-180" y="180" width="120" height="60" as="geometry" />
        </mxCell>
        <mxCell id="SrPzOORxQsSpC2F4RSff-35" style="edgeStyle=orthogonalEdgeStyle;rounded=0;orthogonalLoop=1;jettySize=auto;html=1;exitX=0;exitY=0.75;exitDx=0;exitDy=0;entryX=1;entryY=0.75;entryDx=0;entryDy=0;" edge="1" parent="1" source="SrPzOORxQsSpC2F4RSff-33" target="SrPzOORxQsSpC2F4RSff-16">
          <mxGeometry relative="1" as="geometry" />
        </mxCell>
        <mxCell id="SrPzOORxQsSpC2F4RSff-68" style="edgeStyle=orthogonalEdgeStyle;rounded=0;orthogonalLoop=1;jettySize=auto;html=1;" edge="1" parent="1" source="SrPzOORxQsSpC2F4RSff-33">
          <mxGeometry relative="1" as="geometry">
            <mxPoint x="700" y="550" as="targetPoint" />
          </mxGeometry>
        </mxCell>
        <mxCell id="SrPzOORxQsSpC2F4RSff-33" value="用户信息" style="rounded=0;whiteSpace=wrap;html=1;" vertex="1" parent="1">
          <mxGeometry x="640" y="220" width="120" height="60" as="geometry" />
        </mxCell>
        <mxCell id="SrPzOORxQsSpC2F4RSff-36" value="能力考核方案" style="rounded=0;whiteSpace=wrap;html=1;" vertex="1" parent="1">
          <mxGeometry x="-460" y="300" width="120" height="60" as="geometry" />
        </mxCell>
        <mxCell id="SrPzOORxQsSpC2F4RSff-66" style="edgeStyle=orthogonalEdgeStyle;rounded=0;orthogonalLoop=1;jettySize=auto;html=1;exitX=1;exitY=1;exitDx=0;exitDy=0;entryX=0;entryY=0.75;entryDx=0;entryDy=0;" edge="1" parent="1" source="SrPzOORxQsSpC2F4RSff-50" target="SrPzOORxQsSpC2F4RSff-61">
          <mxGeometry relative="1" as="geometry">
            <Array as="points">
              <mxPoint x="-760" y="455" />
            </Array>
          </mxGeometry>
        </mxCell>
        <mxCell id="SrPzOORxQsSpC2F4RSff-50" value="" style="swimlane;startSize=0;" vertex="1" parent="1">
          <mxGeometry x="-950" y="170" width="190" height="300" as="geometry" />
        </mxCell>
        <mxCell id="SrPzOORxQsSpC2F4RSff-42" value="项目地图" style="rounded=0;whiteSpace=wrap;html=1;" vertex="1" parent="SrPzOORxQsSpC2F4RSff-50">
          <mxGeometry x="30" y="30" width="120" height="60" as="geometry" />
        </mxCell>
        <mxCell id="SrPzOORxQsSpC2F4RSff-43" value="证书" style="rounded=0;whiteSpace=wrap;html=1;" vertex="1" parent="SrPzOORxQsSpC2F4RSff-50">
          <mxGeometry x="30" y="120" width="120" height="60" as="geometry" />
        </mxCell>
        <mxCell id="SrPzOORxQsSpC2F4RSff-44" value="期初人员录入" style="rounded=0;whiteSpace=wrap;html=1;" vertex="1" parent="SrPzOORxQsSpC2F4RSff-50">
          <mxGeometry x="30" y="210" width="120" height="60" as="geometry" />
        </mxCell>
        <mxCell id="SrPzOORxQsSpC2F4RSff-62" style="edgeStyle=orthogonalEdgeStyle;rounded=0;orthogonalLoop=1;jettySize=auto;html=1;exitX=0;exitY=0.5;exitDx=0;exitDy=0;entryX=1;entryY=0.5;entryDx=0;entryDy=0;" edge="1" parent="1" source="SrPzOORxQsSpC2F4RSff-55" target="SrPzOORxQsSpC2F4RSff-61">
          <mxGeometry relative="1" as="geometry" />
        </mxCell>
        <mxCell id="SrPzOORxQsSpC2F4RSff-55" value="能力任务表job" style="rounded=0;whiteSpace=wrap;html=1;" vertex="1" parent="1">
          <mxGeometry x="-460" y="410" width="120" height="60" as="geometry" />
        </mxCell>
        <mxCell id="SrPzOORxQsSpC2F4RSff-64" style="edgeStyle=orthogonalEdgeStyle;rounded=0;orthogonalLoop=1;jettySize=auto;html=1;exitX=0.5;exitY=1;exitDx=0;exitDy=0;" edge="1" parent="1" source="SrPzOORxQsSpC2F4RSff-61">
          <mxGeometry relative="1" as="geometry">
            <mxPoint x="-630" y="550" as="targetPoint" />
          </mxGeometry>
        </mxCell>
        <mxCell id="SrPzOORxQsSpC2F4RSff-65" style="edgeStyle=orthogonalEdgeStyle;rounded=0;orthogonalLoop=1;jettySize=auto;html=1;exitX=0;exitY=0.5;exitDx=0;exitDy=0;entryX=1;entryY=0.9;entryDx=0;entryDy=0;entryPerimeter=0;" edge="1" parent="1" source="SrPzOORxQsSpC2F4RSff-61" target="SrPzOORxQsSpC2F4RSff-50">
          <mxGeometry relative="1" as="geometry" />
        </mxCell>
        <mxCell id="SrPzOORxQsSpC2F4RSff-61" value="计算" style="rounded=0;whiteSpace=wrap;html=1;" vertex="1" parent="1">
          <mxGeometry x="-690" y="410" width="120" height="60" as="geometry" />
        </mxCell>
      </root>
    </mxGraphModel>
  </diagram>
</mxfile>
